<svg width="89" height="48" viewBox="0 0 89 48" fill="none" xmlns="http://www.w3.org/2000/svg">
<g clip-path="url(#clip0_18_2015)">
<path d="M49.0444 8.83297V35.8328H57.775V22.8955C58.3582 23.9001 58.9384 24.8374 59.5073 25.7039V47.6231H59.5095H67.3181V33.9573C68.3714 34.6373 69.1397 35.0381 69.1397 35.0381C70.9703 35.9937 72.2317 36.3391 72.5231 36.4164C73.7371 36.7397 75.0029 36.9019 76.3227 36.9019C78.1961 36.9019 79.9052 36.5787 81.4501 35.9321C82.9938 35.2866 84.3202 34.3838 85.4319 33.2263C86.5424 32.0699 87.4009 30.6819 88.0085 29.0653C88.6161 27.4499 88.9199 25.6534 88.9199 23.6793C88.9199 22.5174 88.9009 20.3182 87.8263 17.7317C86.9397 15.5965 85.7009 14.0805 84.7805 13.1371C83.8793 12.2896 82.331 11.0427 80.0953 10.15C77.4647 9.09841 75.2325 9.07737 74.0309 9.07737C71.8098 9.07737 69.8048 9.43496 68.0181 10.15C66.2302 10.865 64.7121 11.8946 63.4632 13.2386C62.8408 13.9083 62.2874 14.6456 61.8027 15.4506C60.6792 13.518 59.3421 11.3166 57.775 8.83297H49.0444ZM74.0858 16.3259C74.6754 16.3259 75.7197 16.3414 76.9495 16.8369C78.0105 17.2661 78.7407 17.8643 79.1615 18.267C79.579 18.7051 80.1686 19.431 80.5928 20.4627C81.1059 21.7096 81.1136 22.7667 81.1136 23.3218C81.1136 24.3094 80.9583 25.2033 80.6456 26.0022C80.3328 26.8022 79.8828 27.4907 79.2921 28.07C78.7014 28.6494 77.9813 29.0907 77.1319 29.3974C76.2801 29.7031 75.3349 29.8565 74.2941 29.8565C73.3445 29.8565 72.4331 29.7307 71.5588 29.4769C70.9771 29.3335 70.0488 29.0377 69.1138 28.3767C68.3301 27.8228 67.7497 27.1598 67.3181 26.5151V23.9343C67.3181 22.7425 67.4734 21.6799 67.7862 20.7431C68.099 19.8074 68.5411 19.0063 69.1138 18.3431C69.6865 17.6788 70.3897 17.1778 71.2224 16.8369C72.0561 16.497 73.0101 16.3259 74.0858 16.3259Z" fill="url(#paint0_linear_18_2015)"/>
<path d="M44.284 8.23987C37.9597 8.13551 33.3129 12.041 29.4128 16.4584C29.0688 16.8603 28.7336 17.2644 28.4036 17.6726C28.4014 17.6662 28.3991 17.6599 28.3968 17.6534C27.7195 15.7467 26.7485 14.1225 25.4815 12.7774C24.2146 11.4334 22.6967 10.4038 20.9268 9.68879C19.157 8.97376 17.2657 8.61616 15.0446 8.61616C12.8235 8.61616 10.7937 8.97376 8.95402 9.68879C7.11439 10.4038 5.53584 11.399 4.21715 12.6756C2.89734 13.9523 1.86543 15.4675 1.11945 17.2198C0.372339 18.9732 0 20.87 0 22.9125C0 24.8182 0.312803 26.5549 0.937265 28.1196C1.56286 29.6854 2.43813 31.0382 3.56666 32.178C4.69407 33.319 6.03991 34.204 7.60163 34.833C9.16335 35.463 10.8634 35.7776 12.7031 35.7776C14.2648 35.7776 15.7308 35.5569 17.1024 35.1144C18.4728 34.672 19.7128 34.034 20.8244 33.1998C21.131 32.9696 21.1938 32.897 21.6052 32.5351V32.6119C21.6052 34.1434 21.4398 35.4795 21.1101 36.6194C20.7793 37.7593 20.2854 38.704 19.6261 39.4532C18.9668 40.2014 18.1331 40.7552 17.1272 41.1127C16.1202 41.4702 14.9409 41.6489 13.5874 41.6489C12.5117 41.6489 11.4699 41.5464 10.464 41.3422C9.45695 41.1381 8.52077 40.8313 7.65327 40.4231L5.7271 46.4478C7.1493 46.9918 8.60631 47.4001 10.0994 47.6726C11.5902 47.9441 13.0484 48.081 14.4717 48.081C16.7625 48.081 18.8272 47.7234 20.6669 47.0084C22.5054 46.2934 24.0762 45.2727 25.378 43.9453C26.6787 42.6178 27.6767 41.0013 28.3709 39.0957C29.064 37.1889 29.4117 35.0448 29.4117 32.6625V25.5888C29.9387 25.0461 30.4894 24.4753 31.0612 23.8856V35.8328H38.8698V23.1972C38.8698 21.926 39.0081 20.8081 39.286 19.8448C39.5639 18.8826 39.9892 18.0737 40.5619 17.4205C41.1347 16.7672 41.8288 16.2775 42.6446 15.9509C43.4603 15.6242 44.4067 15.4608 45.4823 15.4608C46.0033 15.4608 46.4623 15.4952 46.8617 15.5636C47.26 15.632 47.6335 15.7356 47.9812 15.8724V8.75517C47.3905 8.58303 46.8011 8.45395 46.2115 8.36789L46.2102 8.36897C45.6194 8.2829 44.9782 8.23987 44.284 8.23987ZM14.8387 15.8647C15.8795 15.8647 16.8165 16.0358 17.6492 16.3756C18.4818 16.7166 19.193 17.2176 19.7837 17.8819C20.3732 18.5462 20.8244 19.3462 21.1371 20.2819C21.4488 21.2187 21.6052 22.2824 21.6052 23.4731V26.5172C21.2824 26.8341 20.9048 27.1696 20.4847 27.4808C19.6341 28.112 18.7058 28.5875 17.6999 28.9108C16.6929 29.2341 15.6173 29.3953 14.5765 29.3953C13.5357 29.3953 12.5984 29.243 11.7658 28.9362C10.9332 28.6294 10.2209 28.1957 9.63131 27.634C9.0406 27.0724 8.59062 26.3827 8.27782 25.5662C7.96615 24.7496 7.80974 23.8823 7.80974 22.8606C7.80974 21.8388 7.97406 20.8954 8.30485 20.0269C8.6334 19.1585 9.11033 18.4191 9.73591 17.8056C10.3615 17.1921 11.1075 16.7166 11.975 16.3756C12.8425 16.0358 13.7979 15.8647 14.8387 15.8647Z" fill="url(#paint1_linear_18_2015)"/>
<path d="M56.3896 1.13693C57.1244 1.80893 57.4844 2.70163 57.472 3.81832C57.4653 4.37666 57.364 4.87211 57.1694 5.30576C56.9736 5.74052 56.7013 6.11126 56.3525 6.42133C56.0037 6.7314 55.5863 6.97085 55.1002 7.13967C54.6141 7.3096 54.0954 7.39018 53.543 7.38356C52.4369 7.37142 51.5177 7.03818 50.783 6.38383C50.0471 5.73059 49.6871 4.84562 49.7006 3.72893C49.7073 3.17168 49.8075 2.66631 50.0032 2.21499C50.1979 1.76479 50.4702 1.38298 50.8201 1.07292C51.1689 0.762851 51.5863 0.524506 52.0724 0.354575C52.5573 0.185747 53.0772 0.104096 53.6296 0.110716C54.7345 0.122854 55.6538 0.466032 56.3896 1.13693Z" fill="#9869F4"/>
<path d="M59.5073 25.7039V47.6231H59.5095H67.3182V33.9573C66.9957 33.7766 67.95 34.3653 67.3182 33.9573V26.5151C66.6897 26.0136 67.6903 27.0711 67.3182 26.5151V23.9343C67.3182 22.7425 67.4735 21.6799 67.7862 20.7431C68.0396 19.9851 68.3779 19.3154 68.8017 18.7358V9.86379C68.536 9.95177 68.2748 10.0473 68.0181 10.15C66.2302 10.865 64.7121 11.8946 63.4632 13.2386C62.8625 13.885 62.326 14.5945 61.8534 15.367C59.7992 18.3533 59.5545 22.5975 59.5073 25.7039Z" fill="#9869F4"/>
<path d="M17.8036 8.82392V16.4414C18.5701 16.7798 19.2298 17.2591 19.7836 17.8819C20.3732 18.5462 20.8243 19.3462 21.1371 20.2819C21.4488 21.2187 21.6052 22.2824 21.6052 23.4731V26.5172C21.6052 27.1658 21.6052 31.9631 21.6052 32.5351V32.6119C21.6052 34.1434 21.4397 35.4795 21.1101 36.6194C20.959 37.1401 20.7693 37.6148 20.5499 38.0541C20.4617 38.2306 20.3648 38.3968 20.2655 38.5601C20.2179 38.6385 20.1742 38.7216 20.124 38.797C19.9694 39.0292 19.805 39.2498 19.626 39.4532C19.1207 40.0267 18.5129 40.4859 17.8036 40.8302C17.5875 40.935 17.3621 41.0292 17.1272 41.1127C16.1202 41.4702 14.9409 41.6489 13.5873 41.6489C12.5117 41.6489 11.4698 41.5464 10.4639 41.3422C9.45691 41.1381 8.52072 40.8313 7.65322 40.4231L5.72705 46.4478C7.14925 46.9918 8.60626 47.4001 10.0993 47.6726C11.5902 47.9441 13.0483 48.081 14.4716 48.081C15.6412 48.081 16.7518 47.9879 17.8036 47.8015C18.812 47.6228 19.7663 47.3584 20.6668 47.0084C22.5053 46.2934 24.0762 45.2727 25.378 43.9453C26.6786 42.6178 27.6766 41.0013 28.3709 39.0957C28.3709 39.0955 28.371 39.0952 28.3711 39.095C28.5057 38.7245 28.6273 38.3449 28.7359 37.9564H28.7223C29.1738 36.344 29.4116 34.5847 29.4116 32.6625V25.5888C29.4547 23.1823 29.5572 21.4761 28.4036 17.6726C28.4013 17.6662 28.3991 17.6599 28.3968 17.6534C27.7195 15.7467 26.7484 14.1225 25.4815 12.7774C24.2146 11.4334 22.6967 10.4038 20.9268 9.68878C19.936 9.28849 18.9071 9.00012 17.8036 8.82392Z" fill="#9869F4"/>
</g>
<defs>
<linearGradient id="paint0_linear_18_2015" x1="75.4677" y1="19.3194" x2="70.041" y2="36.4845" gradientUnits="userSpaceOnUse">
<stop stop-color="#9869F4"/>
<stop offset="1" stop-color="#6640EE"/>
</linearGradient>
<linearGradient id="paint1_linear_18_2015" x1="16.4717" y1="24.1947" x2="23.0766" y2="37.5674" gradientUnits="userSpaceOnUse">
<stop stop-color="#9869F4"/>
<stop offset="1" stop-color="#6640EE"/>
</linearGradient>
<clipPath id="clip0_18_2015">
<rect width="89" height="48" fill="white"/>
</clipPath>
</defs>
</svg>
